<?xml version="1.0" encoding="UTF-8"?>
<svg width="20px" height="16px" viewBox="0 0 20 16" version="1.1" xmlns="http://www.w3.org/2000/svg" xmlns:xlink="http://www.w3.org/1999/xlink">
    <!-- Generator: sketchtool 63.1 (101010) - https://sketch.com -->
    <title>7BF534FE-9DB5-4B78-BBD3-88F6ECEB03AE@3x</title>
    <desc>Created with sketchtool.</desc>
    <g id="Restaurant_Detail_old_design" stroke="none" stroke-width="1" fill="none" fill-rule="evenodd">
        <g id="01_Restaurant_details" transform="translate(-16.000000, -85.000000)" fill="#FFFFFF" fill-rule="nonzero">
            <g id="icn_back_arrow" transform="translate(16.000000, 85.000000)">
                <g id="Shape">
                    <path d="M3.43272727,6.80727273 L18.249697,6.80727273 C18.7733333,6.80727273 19.2,7.23393939 19.2,7.75757576 C19.2,8.28121212 18.7733333,8.70787879 18.249697,8.70787879 L3.43272727,8.70787879 L8.47515152,13.750303 C8.80484848,14.1575758 8.76606061,14.7587879 8.35878788,15.0884848 C8.00969697,15.3987879 7.46666667,15.3793939 7.11757576,15.0884848 L0.465454545,8.4169697 C0.096969697,8.04848485 0.096969697,7.44727273 0.465454545,7.07878788 L7.11757576,0.426666667 C7.50545455,0.0775757576 8.10666667,0.116363636 8.45575758,0.523636364 C8.76606061,0.872727273 8.76606061,1.39636364 8.45575758,1.76484848 L3.43272727,6.80727273 L3.43272727,6.80727273 Z"></path>
                </g>
            </g>
        </g>
    </g>
</svg>