<?xml version="1.0" encoding="UTF-8"?>
<svg width="11px" height="17px" viewBox="0 0 11 17" version="1.1" xmlns="http://www.w3.org/2000/svg" xmlns:xlink="http://www.w3.org/1999/xlink">
    <!-- Generator: sketchtool 63.1 (101010) - https://sketch.com -->
    <title>ABEDE96D-1822-49E5-A955-5B94D6E67C82@3x</title>
    <desc>Created with sketchtool.</desc>
    <g id="Change_location_old_design" stroke="none" stroke-width="1" fill="none" fill-rule="evenodd">
        <g id="01_Restaurant_screen" transform="translate(-281.000000, -601.000000)" fill="#FFFFFF">
            <g id="recommended" transform="translate(15.000000, 496.000000)">
                <g id="menu" transform="translate(202.266667, 97.000000)">
                    <g id="menu_icn" transform="translate(63.733333, 8.000000)">
                        <g id="Group-7" transform="translate(0.000000, 0.000005)">
                            <path d="M3.0832425,6.3418425 C3.36911025,6.3420569 3.64333365,6.22860279 3.84548844,6.02647942 C4.04764323,5.82435604 4.16113997,5.55015028 4.16097607,5.2642825 L4.16097607,4.3417825 C4.16097607,3.040835 4.066305,0.9855675 4.032155,0.26282 C4.02467167,0.115763131 3.90340188,0.000285512132 3.756155,-7.10542736e-15 L3.7430025,-7.10542736e-15 C3.58955226,0.000994974914 3.46539364,0.125132428 3.464375,0.2785825 L3.464375,4.050055 C3.46928549,4.18943225 3.37246966,4.31183256 3.2357075,4.33915 C3.15524134,4.35287491 3.07282018,4.33037895 3.0104843,4.27767778 C2.94814841,4.2249766 2.91225598,4.14744565 2.912405,4.0658175 L2.912405,0.2917325 C2.91518061,0.152708932 2.81757207,0.0318304234 2.6810825,0.0052625 C2.60062018,-0.0084527428 2.51820653,0.0140446212 2.45587315,0.066740381 C2.39353977,0.119436141 2.35764242,0.196957242 2.3577775,0.27858 L2.3577775,4.050055 C2.36162114,4.18906987 2.26530023,4.31086045 2.12914,4.33915 C2.04867667,4.35287139 1.96625966,4.33037486 1.90392645,4.27767576 C1.84159324,4.22497666 1.8057012,4.14744977 1.8058475,4.065825 L1.8058475,0.2917325 C1.80860995,0.152702319 1.71098941,0.0318259306 1.5744925,0.0052625 C1.49403042,-0.00845283132 1.41161696,0.0140445778 1.34928395,0.0667404347 C1.28695095,0.119436292 1.25105417,0.196957461 1.25119,0.27858 L1.25119,4.050055 C1.25492804,4.18995664 1.15715618,4.31213106 1.0198375,4.33915 C0.939372739,4.35286478 0.856957025,4.33036518 0.794623297,4.27766623 C0.732289569,4.22496729 0.696393862,4.14744258 0.6965325,4.0658175 L0.6965325,0.27858 C0.696753245,0.125661725 0.573505944,0.00123528145 0.4205925,-7.10542736e-15 L0.40747,-7.10542736e-15 C0.260223628,0.000284272253 0.138954567,0.115761198 0.13147,0.2628175 C0.094605,0.9855675 5.15143483e-14,3.0408325 5.15143483e-14,4.34178 L5.15143483e-14,5.26428 C0.000873167548,5.85911206 0.482917795,6.34107171 1.07775,6.34184 C1.26108894,6.34199307 1.41863421,6.47198817 1.4535975,6.6519625 C1.6507125,7.6612125 1.6533675,8.87805 1.3353125,12.250045 C1.261705,13.012205 1.1051275,13.9933875 1,15 C1.67699539,15.2843268 2.40530427,15.4793744 3.125,15.624995 C3.01725,14.62629 2.967605,13.666625 2.891375,12.891325 C2.507625,9.0278625 2.4997425,7.7216475 2.71001,6.6519625 C2.74374209,6.47233625 2.9004766,6.34210508 3.0832425,6.3418425 Z" id="Path" fill-rule="nonzero"></path>
                            <path d="M2.0625,12.937495 C2.5334073,12.9737186 2.91149844,13.3406471 2.96181387,13.8102578 L3.1168336,15.2571086 C3.1829204,15.8739187 2.73647091,16.4275161 2.11966074,16.4936029 C2.07991598,16.4978613 2.03997224,16.499995 2,16.499995 C1.39832951,16.499995 0.91057921,16.0122447 0.91057921,15.4105742 C0.91057921,15.3607805 0.91399306,15.3110453 0.920796746,15.2617186 L1.13865414,13.6822525 C1.20120522,13.2287572 1.60605958,12.9023842 2.0625,12.937495 Z" id="Rectangle"></path>
                        </g>
                        <g id="Group-5" transform="translate(6.119192, 0.000000)">
                            <path d="M4.7260725,2.92781 C4.7260725,1.3114625 3.6667475,1.42108547e-14 2.3630375,1.42108547e-14 C1.05664,1.42108547e-14 -2.84217094e-14,1.3114625 -2.84217094e-14,2.92781 C-2.84217094e-14,4.1446675 0.6334225,4.86479 1.1696775,5.453505 C1.5192875,5.8372325 1.8872675,6.278755 1.8793325,6.8858775 C1.8557425,8.89119 1.548155,11.2171475 1.3562925,13.022735 C1.2353825,14.158095 1.1591475,15.08586 1.2301025,15.6009975 C2.01429329,15.4659385 2.78179733,15.2474267 3.51953,14.9491875 C3.50647,14.28163 3.40918,13.353865 3.2908925,12.3025975 C3.1016425,10.6231825 2.86505,8.63101 2.844055,6.8858775 C2.838805,6.2787625 3.2067875,5.8372325 3.556395,5.453505 C4.089965,4.864795 4.7260725,4.1446725 4.7260725,2.92781 Z" id="Path" fill-rule="nonzero"></path>
                            <path d="M2.3808075,13.0625 C2.95381599,13.098313 3.41241163,13.5516557 3.45482333,14.1242136 L3.53846789,15.2534153 C3.58582776,15.8927735 3.1059183,16.4494685 2.46656012,16.4968283 C2.43802477,16.4989421 2.40942103,16.5 2.3808075,16.5 C1.73800383,16.5 1.2169085,15.9789047 1.2169085,15.336101 C1.2169085,15.3084332 1.21789506,15.2807741 1.21986631,15.2531766 L1.30942143,13.999405 C1.34894909,13.4460177 1.82709075,13.0278927 2.3808075,13.0625 Z" id="Rectangle"></path>
                        </g>
                    </g>
                </g>
            </g>
        </g>
    </g>
</svg>