<?xml version="1.0" encoding="UTF-8"?>
<svg width="14px" height="14px" viewBox="0 0 14 14" version="1.1" xmlns="http://www.w3.org/2000/svg" xmlns:xlink="http://www.w3.org/1999/xlink">
    <!-- Generator: sketchtool 63.1 (101010) - https://sketch.com -->
    <title>E029D432-F4DF-434E-8239-BD79993F130D@3x</title>
    <desc>Created with sketchtool.</desc>
    <g id="Change_location_old_design" stroke="none" stroke-width="1" fill="none" fill-rule="evenodd">
        <g id="01_Restaurant_screen" transform="translate(-280.000000, -659.000000)" fill="#FFFFFF">
            <g id="bottom_button" transform="translate(0.000000, 636.000000)">
                <g id="bottom_cart" transform="translate(15.213333, 0.533333)">
                    <g id="Group-8" transform="translate(182.786667, 19.466667)">
                        <g id="icn_arrow_bottom_btn" transform="translate(82.000000, 3.000000)">
                            <path d="M7,0 C10.8659932,0 14,3.13400675 14,7 C14,10.8659932 10.8659932,14 7,14 C3.13400675,14 0,10.8659932 0,7 C0,3.13400675 3.13400675,0 7,0 Z M5.66087958,3.3465151 L5.5785666,3.4 L5.56772836,3.41358073 C5.42487387,3.63814687 5.42273616,3.94564492 5.56877279,4.17493058 L5.64045356,4.26793754 L8.1695666,7 L5.64166984,9.73074444 C5.42561445,9.96413502 5.4045852,10.3296394 5.56774416,10.586398 L5.5785666,10.601 L5.66093857,10.653417 C5.89294679,10.7770946 6.18401892,10.7325613 6.37654757,10.5245851 L9.20590781,7.46821116 L9.2405666,7.424 L9.33682768,7.3189797 L9.27964712,7.37206622 C9.42432541,7.14255752 9.42199772,6.83627739 9.27983348,6.61255757 L9.2695666,6.6 L9.2415666,6.582 L9.19684748,6.52199743 L6.37533129,3.47409689 C6.1833364,3.26669729 5.8927249,3.22266151 5.66087958,3.3465151 Z" id="Oval-4"></path>
                        </g>
                    </g>
                </g>
            </g>
        </g>
    </g>
</svg>