<?xml version="1.0" encoding="UTF-8"?>
<svg width="11px" height="11px" viewBox="0 0 11 11" version="1.1" xmlns="http://www.w3.org/2000/svg" xmlns:xlink="http://www.w3.org/1999/xlink">
    <!-- Generator: sketchtool 63.1 (101010) - https://sketch.com -->
    <title>4BB8F814-69ED-49C0-81B1-BE67B366E0A7@3x</title>
    <desc>Created with sketchtool.</desc>
    <g id="Change_location_old_design" stroke="none" stroke-width="1" fill="none" fill-rule="evenodd">
        <g id="01_Restaurant_screen" transform="translate(-16.000000, -274.000000)" fill="#898989" fill-rule="nonzero">
            <g id="res_name" transform="translate(16.000000, 220.000000)">
                <g id="icn_money" transform="translate(0.000000, 54.000000)">
                    <path d="M0.350649351,6.62337662 L0.584415584,6.77922078 C0.837662338,6.95454545 0.954545455,7.26623377 0.857142857,7.55844156 L0.779220779,7.83116883 C0.662337662,8.24025974 0.935064935,8.66883117 1.34415584,8.72727273 L1.61688312,8.76623377 C1.90909091,8.80519481 2.16233766,9.03896104 2.2012987,9.35064935 L2.24025974,9.62337662 C2.31818182,10.0519481 2.72727273,10.3051948 3.13636364,10.1883117 L3.40909091,10.1103896 C3.7012987,10.012987 4.01298701,10.1298701 4.18831169,10.3831169 L4.34415584,10.6168831 C4.5974026,10.9675325 5.08441558,11.025974 5.3961039,10.7337662 L5.61038961,10.538961 C5.84415584,10.3246753 6.15584416,10.2857143 6.42857143,10.4415584 L6.68181818,10.5779221 C7.05194805,10.7922078 7.51948052,10.6168831 7.67532468,10.2272727 L7.77272727,9.97402597 C7.88961039,9.68181818 8.16233766,9.50649351 8.47402597,9.52597403 L8.74675325,9.54545455 C9.17532468,9.56493506 9.52597403,9.21428571 9.48701299,8.78571429 L9.46753247,8.51298701 C9.44805195,8.2012987 9.62337662,7.92857143 9.8961039,7.81168831 L10.1493506,7.71428571 C10.538961,7.55844156 10.6948052,7.07142857 10.5,6.7012987 L10.3636364,6.46753247 C10.2077922,6.19480519 10.2467532,5.86363636 10.4415584,5.64935065 L10.6363636,5.43506494 C10.9285714,5.12337662 10.8701299,4.61688312 10.5,4.38311688 L10.3246753,4.16883117 C10.0714286,3.99350649 9.95454545,3.68181818 10.0519481,3.38961039 L10.1298701,3.11688312 C10.2467532,2.70779221 9.97402597,2.27922078 9.56493506,2.22077922 L9.29220779,2.18181818 C9,2.14285714 8.74675325,1.90909091 8.70779221,1.5974026 L8.66883117,1.32467532 C8.57142857,0.915584416 8.14285714,0.642857143 7.73376623,0.779220779 L7.46103896,0.857142857 C7.16883117,0.954545455 6.85714286,0.837662338 6.68181818,0.584415584 L6.52597403,0.350649351 C6.27272727,-8.81933415e-15 5.78571429,-0.0584415584 5.47402597,0.233766234 L5.25974026,0.428571429 C5.02597403,0.642857143 4.71428571,0.681818182 4.44155844,0.525974026 L4.18831169,0.38961039 C3.81818182,0.175324675 3.35064935,0.350649351 3.19480519,0.74025974 L3.0974026,0.993506494 C2.98051948,1.28571429 2.70779221,1.46103896 2.3961039,1.44155844 L2.12337662,1.42207792 C1.69480519,1.4025974 1.34415584,1.75324675 1.38311688,2.18181818 L1.4025974,2.45454545 C1.42207792,2.76623377 1.24675325,3.03896104 0.974025974,3.15584416 L0.720779221,3.25324675 C0.331168831,3.40909091 0.175324675,3.8961039 0.37012987,4.26623377 L0.506493506,4.5 C0.662337662,4.77272727 0.623376623,5.1038961 0.428571429,5.31818182 L0.233766234,5.53246753 C-0.0584415584,5.88311688 -7.09848846e-14,6.38961039 0.350649351,6.62337662 Z M3.75974026,6.48701299 L4.63636364,6.46753247 C4.73376623,6.46753247 4.81168831,6.52597403 4.81168831,6.62337662 C4.83116883,6.85714286 4.88961039,7.01298701 5.00649351,7.12987013 C5.14285714,7.26623377 5.31818182,7.32467532 5.53246753,7.32467532 C5.70779221,7.32467532 5.84415584,7.26623377 5.94155844,7.16883117 C6.03896104,7.07142857 6.07792208,6.93506494 6.07792208,6.75974026 C6.07792208,6.56493506 6.03896104,6.40909091 5.94155844,6.31168831 C5.84415584,6.19480519 5.68831169,6.0974026 5.43506494,6 C4.85064935,5.76623377 4.42207792,5.53246753 4.16883117,5.2987013 C3.8961039,5.06493506 3.77922078,4.71428571 3.77922078,4.24675325 C3.77922078,3.83766234 3.91558442,3.48701299 4.20779221,3.21428571 C4.46103896,2.96103896 4.79220779,2.82467532 5.2012987,2.76623377 L5.2012987,2.12337662 C5.2012987,2.04545455 5.25974026,1.96753247 5.35714286,1.96753247 L5.9025974,1.96753247 C5.98051948,1.96753247 6.05844156,2.02597403 6.05844156,2.12337662 L6.05844156,2.78571429 C6.44805195,2.86363636 6.75974026,3.03896104 6.99350649,3.31168831 C7.22727273,3.56493506 7.34415584,3.8961039 7.36363636,4.28571429 C7.36363636,4.38311688 7.28571429,4.46103896 7.18831169,4.46103896 L6.29220779,4.48051948 C6.19480519,4.48051948 6.11688312,4.42207792 6.11688312,4.32467532 C6.0974026,4.12987013 6.05844156,3.97402597 5.96103896,3.87662338 C5.86363636,3.74025974 5.72727273,3.68181818 5.55194805,3.68181818 C5.37662338,3.68181818 5.24025974,3.74025974 5.16233766,3.83766234 C5.08441558,3.95454545 5.04545455,4.09090909 5.04545455,4.24675325 C5.04545455,4.42207792 5.08441558,4.55844156 5.18181818,4.65584416 C5.27922078,4.75324675 5.43506494,4.87012987 5.68831169,4.98701299 C6.25324675,5.24025974 6.68181818,5.47402597 6.95454545,5.72727273 C7.22727273,5.96103896 7.36363636,6.31168831 7.36363636,6.75974026 C7.36363636,7.18831169 7.22727273,7.53896104 6.95454545,7.79220779 C6.72077922,8.00649351 6.42857143,8.16233766 6.05844156,8.22077922 L6.05844156,8.84415584 C6.05844156,8.92207792 6,9 5.9025974,9 L5.35714286,9 C5.27922078,9 5.2012987,8.94155844 5.2012987,8.84415584 L5.2012987,8.24025974 C4.75324675,8.18181818 4.36363636,8.02597403 4.05194805,7.75324675 C3.77922078,7.5 3.62337662,7.12987013 3.6038961,6.66233766 C3.58441558,6.56493506 3.66233766,6.48701299 3.75974026,6.48701299 Z" id="Shape"></path>
                </g>
            </g>
        </g>
    </g>
</svg>