<?xml version="1.0" encoding="UTF-8"?>
<svg width="15px" height="10px" viewBox="0 0 15 10" version="1.1" xmlns="http://www.w3.org/2000/svg" xmlns:xlink="http://www.w3.org/1999/xlink">
    <!-- Generator: sketchtool 63.1 (101010) - https://sketch.com -->
    <title>023BFE58-572C-4F69-AC8B-AB014B1A56D5@3x</title>
    <desc>Created with sketchtool.</desc>
    <g id="Change_location_old_design" stroke="none" stroke-width="1" fill="none" fill-rule="evenodd">
        <g id="01_Restaurant_screen" transform="translate(-144.000000, -275.000000)" fill="#898989" fill-rule="nonzero">
            <g id="res_name" transform="translate(16.000000, 220.000000)">
                <g id="icn_scooter" transform="translate(128.000000, 55.000000)">
                    <g id="Group" transform="translate(10.348785, 5.245275)">
                        <path d="M1.93281278,0.0575562556 C0.886593159,0.0575562556 0.0379927993,0.906156616 0.0379927993,1.95421917 C0.0379927993,2.99873762 0.886593159,3.84563681 1.93281278,3.84563681 C2.98087534,3.84563681 3.82777453,2.99873762 3.82777453,1.95421917 C3.82777453,0.90629838 2.98087534,0.0575562556 1.93281278,0.0575562556 Z" id="Path"></path>
                    </g>
                    <path d="M1.41338884,7.59473222 C1.60037579,8.44333258 2.35909766,9.10678893 3.26241899,9.10678893 C4.17807381,9.10678893 4.94204095,8.457509 5.11853735,7.59473222 L1.41338884,7.59473222 L1.41338884,7.59473222 Z" id="Path"></path>
                    <path d="M12.1317529,4.01135914 L11.6395477,2.36009001 C11.6236701,2.29828083 11.7153915,2.26822682 11.7153915,2.26822682 L12.4969374,2.03715122 L12.3893384,0.936068857 L11.4701395,0.858523852 C11.2090099,0.890420792 11.1489019,0.643325833 11.1489019,0.643325833 L11.0413029,0.260420792 C10.965459,-0.0307628263 10.7043294,0.000992349235 10.7043294,0.000992349235 L8.88365212,0.000992349235 C8.6225225,0.200312781 8.92944194,0.353985149 8.92944194,0.353985149 L10.0462601,0.353985149 C10.1540009,0.336264626 10.2139671,0.461442394 10.2139671,0.461442394 L10.835036,4.30792979 C10.132878,4.62548155 9.50656391,5.21833933 9.16604635,6.14094059 L7.13683393,6.14094059 C5.83472997,5.16007426 6.41695545,3.75207246 6.41695545,3.75207246 L6.92163591,3.75207246 L6.92163591,2.72867687 L0.291183618,2.72867687 L0.291183618,3.75207246 L1.30394689,3.75207246 C-0.105614311,5.10010801 0.00184293429,7.09019352 0.00184293429,7.09019352 L9.83815032,7.09019352 C9.90336184,5.7934766 10.9690032,4.75774752 12.2815977,4.75774752 C12.8550338,4.75774752 13.377293,4.96415617 13.7954973,5.29418317 L14.1765594,5.29418317 C14.0919262,4.48768677 13.1762714,3.99378038 12.1317529,4.01135914 Z" id="Path"></path>
                </g>
            </g>
        </g>
    </g>
</svg>