<?xml version="1.0" encoding="UTF-8"?>
<svg width="10px" height="14px" viewBox="0 0 10 14" version="1.1" xmlns="http://www.w3.org/2000/svg" xmlns:xlink="http://www.w3.org/1999/xlink">
    <!-- Generator: sketchtool 63.1 (101010) - https://sketch.com -->
    <title>FFB9EBF6-FE1E-40F3-9723-1AECD28EC023@1x</title>
    <desc>Created with sketchtool.</desc>
    <g id="Restaurant_Detail_old_design" stroke="none" stroke-width="1" fill="none" fill-rule="evenodd">
        <g id="01_Restaurant_details" transform="translate(-183.000000, -388.000000)" fill="#9AA0A8">
            <g id="res_name" transform="translate(15.000000, 205.000000)">
                <g id="locations" transform="translate(168.000000, 181.000000)">
                    <g id="direction" transform="translate(0.000000, 2.000000)">
                        <path d="M4.8645071,8.8817842e-16 C6.16095382,0.00434584378 7.40172967,0.525284079 8.31006605,1.44661375 C9.21840243,2.36794341 9.71873644,3.61302072 9.69946312,4.90411757 L9.69946312,4.90411757 L9.69946312,5.07713491 C9.68361661,5.57798486 9.59163803,6.07354928 9.42666147,6.54694236 C8.69511453,8.94146869 6.74376052,11.855467 5.63906141,13.3844867 C5.19423027,14.0194435 4.53394065,14.0194435 4.04610215,13.3555105 C2.9287538,11.8122126 0.989205736,8.91249248 0.272416234,6.53266423 C0.107821753,6.05918623 0.0159922069,5.56365885 0,5.06285678 L0,5.06285678 L0,4.88983944 C-0.0102378549,2.20255378 2.16638929,0.0145753646 4.8645071,8.8817842e-16 Z M4.85,3.23333333 C3.95713965,3.23333333 3.23333333,3.95713965 3.23333333,4.85 C3.23333333,5.74286035 3.95713965,6.46666667 4.85,6.46666667 C5.74286035,6.46666667 6.46666667,5.74286035 6.46666667,4.85 C6.46666667,3.95713965 5.74286035,3.23333333 4.85,3.23333333 Z" id="icn_view_map"></path>
                    </g>
                </g>
            </g>
        </g>
    </g>
</svg>